# Alias OBJ Model File
# Exported from SketchUp, (c) 2000-2012 Trimble Navigation Limited
# File units = meters

mtllib puu2.mtl

g Mesh1 Model

usemtl _1
v -0.374299 0.0154903 -0.42715
vt 14.7362 16.8169
vn 0 -1 -0
v -0.414046 0.0154903 -0.410686
vt 16.301 16.1687
v -0.4567 0.0154903 -0.40507
vt 17.9803 15.9476
v -0.499354 0.0154903 -0.410686
vt 19.6596 16.1687
v -0.539101 0.0154903 -0.42715
vt 21.2244 16.8169
v -0.573233 0.0154903 -0.45334
vt 22.5682 17.848
v -0.599423 0.0154903 -0.487471
vt 23.5993 19.1918
v -0.615886 0.0154903 -0.527218
vt 24.2475 20.7566
v -0.621502 0.0154903 -0.569872
vt 24.4686 22.4359
v -0.615886 0.0154903 -0.612526
vt 24.2475 24.1152
v -0.599423 0.0154903 -0.652273
vt 23.5993 25.6801
v -0.573233 0.0154903 -0.686405
vt 22.5682 27.0238
v -0.539101 0.0154903 -0.712595
vt 21.2244 28.0549
v -0.499354 0.0154903 -0.729059
vt 19.6596 28.7031
v -0.4567 0.0154903 -0.734674
vt 17.9803 28.9242
v -0.414046 0.0154903 -0.729059
vt 16.301 28.7031
v -0.374299 0.0154903 -0.712595
vt 14.7362 28.0549
v -0.340167 0.0154903 -0.686405
vt 13.3924 27.0238
v -0.313977 0.0154903 -0.652273
vt 12.3613 25.6801
v -0.297513 0.0154903 -0.612526
vt 11.7131 24.1152
v -0.291898 0.0154903 -0.569872
vt 11.492 22.4359
v -0.297513 0.0154903 -0.527218
vt 11.7131 20.7566
v -0.313977 0.0154903 -0.487471
vt 12.3613 19.1918
v -0.340167 0.0154903 -0.45334
vt 13.3924 17.848
f 1/1/1 2/2/1 3/3/1 4/4/1 5/5/1 6/6/1 7/7/1 8/8/1 9/9/1 10/10/1 11/11/1 12/12/1 13/13/1 14/14/1 15/15/1 16/16/1 17/17/1 18/18/1 19/19/1 20/20/1 21/21/1 22/22/1 23/23/1 24/24/1 

usemtl M_2291880_476517_old_mossy_pine_tree_bark_texture
vt -5.76451 0.360135
vn 0.5 0 0.866025
v -0.374299 1.55364 -0.42715
vt -5.76451 36.1206
v -0.414046 1.55364 -0.410686
vt -7.12458 36.1206
vn 0.258819 0 0.965926
vt -7.12458 0.360135
f 1/25/2 25/26/2 26/27/3 2/28/3 

vt 0.192931 0.360135
vn 0.707107 0 0.707107
v -0.340167 1.55364 -0.45334
vt 0.192931 36.1206
vt -1.16714 36.1206
vt -1.16714 0.360135
f 24/29/4 27/30/4 25/31/2 1/32/2 

vt 6.18357 0.360135
vn 0.866025 0 0.5
v -0.313977 1.55364 -0.487471
vt 6.18357 36.1206
vt 4.8235 36.1206
vt 4.8235 0.360135
f 23/33/5 28/34/5 27/35/4 24/36/4 

vt 11.7992 0.360135
vn 0.965926 2.16229e-17 0.258819
v -0.297513 1.55364 -0.527218
vt 11.7992 36.1206
vt 10.4391 36.1206
vt 10.4391 0.360135
f 22/37/6 29/38/6 28/39/5 23/40/5 

v -0.291898 1.55364 -0.569872
vt 16.657 36.1206
vn 1 2.16229e-17 -0
v -0.296835 1.55364 -0.532372
vt 15.4612 36.1206
vn 0.991445 4.28758e-17 0.130526
vt 15.2969 36.1206
vt 15.2969 0.360135
vt 16.657 0.360135
f 30/41/7 31/42/8 29/43/6 22/44/6 21/45/7 

usemtl FrontColor
vn 1.02585e-30 -1 1.32822e-30
v -0.4567 1.55364 -0.40507
v -0.499354 1.55364 -0.410686
v -0.539101 1.55364 -0.42715
v -0.573233 1.55364 -0.45334
v -0.599423 1.55364 -0.487471
v -0.615886 1.55364 -0.527218
v -0.621502 1.55364 -0.569872
v -0.615886 1.55364 -0.612526
v -0.599423 1.55364 -0.652273
v -0.573233 1.55364 -0.686405
v -0.539101 1.55364 -0.712595
v -0.499354 1.55364 -0.729059
v -0.4567 1.55364 -0.734674
v -0.414046 1.55364 -0.729059
v -0.374299 1.55364 -0.712595
v -0.340167 1.55364 -0.686405
v -0.313977 1.55364 -0.652273
v -0.297513 1.55364 -0.612526
vt 11.6864 20.9595
f 25/1/9 26/2/9 32/3/9 33/4/9 34/5/9 35/6/9 36/7/9 37/8/9 38/9/9 39/10/9 40/11/9 41/12/9 42/13/9 43/14/9 44/15/9 45/16/9 46/17/9 47/18/9 48/19/9 49/20/9 30/21/9 31/46/9 29/22/9 28/23/9 27/24/9 

usemtl M_2291880_476517_old_mossy_pine_tree_bark_texture
vt -11.2828 0.360135
vt -11.2828 36.1206
vt -12.6428 36.1206
vn -5.73899e-16 0 1
vt -12.6428 0.360135
f 2/47/3 26/48/3 32/49/10 3/50/10 

vt -15.9858 0.360135
vt -15.9858 36.1206
vt -17.3459 36.1206
vn -0.258819 0 0.965926
vt -17.3459 0.360135
f 3/51/10 32/52/10 33/53/11 4/54/11 

vt -19.553 0.360135
vt -19.553 36.1206
vt -20.9131 36.1206
vn -0.5 0 0.866025
vt -20.9131 0.360135
f 4/55/11 33/56/11 34/57/12 5/58/12 

vt -21.7415 0.360135
vt -21.7415 36.1206
vt -23.1015 36.1206
vn -0.707107 0 0.707107
vt -23.1015 0.360135
f 5/59/12 34/60/12 35/61/13 6/62/13 

vt -22.4019 0.360135
vt -22.4019 36.1206
vt -23.762 36.1206
vn -0.866025 0 0.5
vt -23.762 0.360135
f 6/63/13 35/64/13 36/65/14 7/66/14 

vt -21.4893 0.360135
vt -21.4893 36.1206
vt -22.8494 36.1206
vn -0.965926 0 0.258819
vt -22.8494 0.360135
f 7/67/14 36/68/14 37/69/15 8/70/15 

vt -19.0659 0.360135
vt -19.0659 36.1206
vt -20.426 36.1206
vn -1 0 2.79951e-16
vt -20.426 0.360135
f 8/71/15 37/72/15 38/73/16 9/74/16 

vt -15.2969 0.360135
vt -15.2969 36.1206
vt -16.657 36.1206
vn -0.965926 0 -0.258819
vt -16.657 0.360135
f 9/75/16 38/76/16 39/77/17 10/78/17 

vt -10.4391 0.360135
vt -10.4391 36.1206
vt -11.7992 36.1206
vn -0.866025 0 -0.5
vt -11.7992 0.360135
f 10/79/17 39/80/17 40/81/18 11/82/18 

vt -4.8235 0.360135
vt -4.8235 36.1206
vt -6.18357 36.1206
vn -0.707107 0 -0.707107
vt -6.18357 0.360135
f 11/83/18 40/84/18 41/85/19 12/86/19 

vt 1.16714 0.360135
vt 1.16714 36.1206
vt -0.192931 36.1206
vn -0.5 0 -0.866025
vt -0.192931 0.360135
f 12/87/19 41/88/19 42/89/20 13/90/20 

vt 7.12458 0.360135
vt 7.12458 36.1206
vt 5.76451 36.1206
vn -0.258819 0 -0.965926
vt 5.76451 0.360135
f 13/91/20 42/92/20 43/93/21 14/94/21 

vt 12.6428 0.360135
vt 12.6428 36.1206
vt 11.2828 36.1206
vn -7.9786e-16 0 -1
vt 11.2828 0.360135
f 14/95/21 43/96/21 44/97/22 15/98/22 

vt 17.3459 0.360135
vt 17.3459 36.1206
vt 15.9858 36.1206
vn 0.258819 0 -0.965926
vt 15.9858 0.360135
f 15/99/22 44/100/22 45/101/23 16/102/23 

vt 20.9131 0.360135
vt 20.9131 36.1206
vt 19.553 36.1206
vn 0.5 0 -0.866025
vt 19.553 0.360135
f 16/103/23 45/104/23 46/105/24 17/106/24 

vt 23.1015 0.360135
vt 23.1015 36.1206
vt 21.7415 36.1206
vn 0.707107 0 -0.707107
vt 21.7415 0.360135
f 17/107/24 46/108/24 47/109/25 18/110/25 

vt 23.762 0.360135
vt 23.762 36.1206
vt 22.4019 36.1206
vn 0.866025 0 -0.5
vt 22.4019 0.360135
f 18/111/25 47/112/25 48/113/26 19/114/26 

vt 22.8494 0.360135
vt 22.8494 36.1206
vt 21.4893 36.1206
vn 0.965926 0 -0.258819
vt 21.4893 0.360135
f 19/115/26 48/116/26 49/117/27 20/118/27 

vt 20.426 0.360135
vt 20.426 36.1206
vt 19.0659 36.1206
vt 19.0659 0.360135
f 20/119/27 49/120/27 30/121/7 21/122/7 

g Mesh2 Model

usemtl Vegetation_Grass_Artificial
v -0.4567 1.98863 -0.569872
vt 0.855779 3.3376
vn 5.27795e-16 1 9.51258e-17
v 0.22192 0.29016 -0.410686
vt 0.70653 0.32959
vn 0.900676 0.379664 0.211275
v 0.239997 0.29016 -0.59175
vt 1.00503 0.32959
vn 0.924668 0.379664 -0.0290359
f 50/123/28 51/124/29 52/125/30

vt 0.609639 3.41031
vn 6.25989e-16 1 3.06857e-17
v 0.157596 0.29016 -0.24047
vt 0.460391 0.402299
vn 0.815304 0.379664 0.437188
vt 0.758888 0.402299
f 50/126/31 53/127/32 51/128/29

vt 0.321954 3.45653
vn 4.54149e-16 1 7.36458e-17
v 0.0514085 0.29016 -0.092703
vt 0.172706 0.448522
vn 0.674371 0.379664 0.633308
vt 0.471203 0.448522
f 50/129/33 54/130/34 53/131/32

vt 0.0123283 3.47312
vn 5.89166e-16 1 9.81944e-17
v -0.0894053 0.29016 0.022546
vt -0.13692 0.465109
vn 0.48748 0.379664 0.786268
vt 0.161577 0.465109
f 50/132/35 55/133/36 54/134/34

vt -0.298138 3.45893
vn 5.83029e-16 1 1.59566e-16
v -0.25525 0.29016 0.0974227
vt -0.447386 0.450928
vn 0.267368 0.379664 0.885646
vt -0.148889 0.450928
f 50/135/37 56/136/38 55/137/36

vt -0.588286 3.41495
vn 6.47469e-16 1 8.59201e-17
v -0.434823 0.29016 0.126824
vt -0.737535 0.406946
vn 0.0290359 0.379664 0.924668
vt -0.439037 0.406946
f 50/138/39 57/139/40 56/140/38

vt -0.838344 3.34417
vn 6.18318e-16 1 4.90972e-17
v -0.615886 0.29016 0.108747
vt -0.987592 0.336161
vn -0.211275 0.379664 0.900676
vt -0.689095 0.336161
f 50/141/41 58/142/42 57/143/40

vt -1.03127 3.2514
vn 6.13715e-16 1 1.59566e-16
v -0.786102 0.29016 0.0444233
vt -1.18052 0.243396
vn -0.437188 0.379664 0.815304
vt -0.882021 0.243396
f 50/144/43 59/145/44 58/146/42

vt -1.15392 3.14298
vn 5.64618e-16 1 6.13715e-17
v -0.933869 0.29016 -0.0617638
vt -1.30316 0.134973
vn -0.633308 0.379664 0.674371
vt -1.00467 0.134973
f 50/147/45 60/148/46 59/149/44

vt -1.19793 3.02629
vn 5.89166e-16 1 1.47292e-16
v -1.04912 0.29016 -0.202578
vt -1.34717 0.0182815
vn -0.786268 0.379664 0.48748
vt -1.04868 0.0182815
f 50/150/47 61/151/48 60/152/46

vt -1.1603 2.90928
vn 4.90972e-16 1 1.2888e-16
v -1.12399 0.29016 -0.368422
vt -1.30955 -0.0987268
vn -0.885646 0.379664 0.267368
vt -1.01105 -0.0987268
f 50/153/49 62/154/50 61/155/48

vt -1.0436 2.79993
vn 5.40069e-16 1 1.2888e-16
v -1.1534 0.29016 -0.547995
vt -1.19285 -0.208078
vn -0.924668 0.379664 0.0290359
vt -0.894349 -0.208078
f 50/156/51 63/157/52 62/158/50

vt -0.855779 2.70569
vn 6.38263e-16 1 1.3962e-16
v -1.13532 0.29016 -0.729059
vt -1.00503 -0.302319
vn -0.900676 0.379664 -0.211275
vt -0.70653 -0.302319
f 50/159/53 64/160/54 63/161/52

vt -0.609639 2.63298
vn 6.25989e-16 1 1.59566e-16
v -1.071 0.29016 -0.899274
vt -0.758888 -0.375029
vn -0.815304 0.379664 -0.437188
vt -0.460391 -0.375029
f 50/162/55 65/163/56 64/164/54

vt -0.321954 2.58676
vn 5.64618e-16 1 1.10469e-16
v -0.964808 0.29016 -1.04704
vt -0.471203 -0.421252
vn -0.674371 0.379664 -0.633308
vt -0.172706 -0.421252
f 50/165/57 66/166/58 65/167/56

vt -0.0123283 2.57017
vn 6.0144e-16 1 1.10469e-16
v -0.823995 0.29016 -1.16229
vt -0.161577 -0.437838
vn -0.48748 0.379664 -0.786268
vt 0.13692 -0.437838
f 50/168/59 67/169/60 66/170/58

vt 0.298138 2.58435
vn 4.7256e-16 1 1.22743e-16
v -0.65815 0.29016 -1.23717
vt 0.148889 -0.423657
vn -0.267368 0.379664 -0.885646
vt 0.447386 -0.423657
f 50/171/61 68/172/62 67/173/60

vt 0.588286 2.62833
vn 4.26532e-16 1 1.35017e-16
v -0.478577 0.29016 -1.26657
vt 0.439037 -0.379675
vn -0.0290359 0.379664 -0.924668
vt 0.737535 -0.379675
f 50/174/63 69/175/64 68/176/62

vt 0.838344 2.69912
vn 4.54149e-16 1 -0
v -0.297513 0.29016 -1.24849
vt 0.689095 -0.30889
vn 0.211275 0.379664 -0.900676
vt 0.987592 -0.30889
f 50/177/65 70/178/66 69/179/64

vt 1.03127 2.79188
vn 3.68229e-16 1 1.22743e-16
v -0.127298 0.29016 -1.18417
vt 0.882021 -0.216125
vn 0.437188 0.379664 -0.815304
vt 1.18052 -0.216125
f 50/180/67 71/181/68 70/182/66

vt 1.15392 2.9003
vn 4.41875e-16 1 8.59201e-17
v 0.0204694 0.29016 -1.07798
vt 1.00467 -0.107703
vn 0.633308 0.379664 -0.674371
vt 1.30316 -0.107703
f 50/183/69 72/184/70 71/185/68

vt 1.19793 3.017
vn 5.40069e-16 1 4.90972e-17
v 0.135718 0.29016 -0.937167
vt 1.04868 0.00898887
vn 0.786268 0.379664 -0.48748
vt 1.34717 0.00898887
f 50/186/71 73/187/72 72/188/70

vt 1.1603 3.134
vn 4.90972e-16 1 4.90972e-17
v 0.210595 0.29016 -0.771322
vt 1.01105 0.125997
vn 0.885646 0.379664 -0.267368
vt 1.30955 0.125997
f 50/189/73 74/190/74 73/191/72

vt 1.0436 3.24336
vn 5.1552e-16 1 9.81944e-17
vt 0.894349 0.235348
vt 1.19285 0.235348
f 50/192/75 52/193/30 74/194/74

